# xmcd
#
# Track frame offsets:
# 150
# 16485
# 28523
# 40543
# 60063
# 76222
# 89188
# 102953
# 120095
# 137645
# 151522
# 162012
# 171248
# 181745
# 188758
#
# Disc length: 2698 seconds
#
# Revision: 0
# Processed by: cddbd v1.4b42PL1 Copyright (c) Steve Scherf et al.
# Submitted via: Audion 2.5.0 (http://www.panic.com/audion/)
#
DISCID=a00a880f
DTITLE=Varios - The best of country music
DYEAR=1900
DGENRE=
TTITLE0=A boy named Sue
TTITLE1=The most beautiful girl
TTITLE2=Stand by your man
TTITLE3=El Paso
TTITLE4=The devil went down to Georgia
TTITLE5=Rose Garden
TTITLE6=Duelilng Banjos
TTITLE7=For the good times
TTITLE8=The best of my love
TTITLE9=The grand tour
TTITLE10=Blue eyes crying in the rain
TTITLE11=The ballad of easy rider
TTITLE12=Flowers on the wall
TTITLE13=The ballad of Jed Clampett
TTITLE14=Highwayman
EXTD=
EXTT0=
EXTT1=
EXTT2=
EXTT3=
EXTT4=
EXTT5=
EXTT6=
EXTT7=
EXTT8=
EXTT9=
EXTT10=
EXTT11=
EXTT12=
EXTT13=
EXTT14=
PLAYORDER=
